<?xml version="1.0" encoding="UTF-8"?>
<svg id="Capa_1" data-name="Capa 1" xmlns="http://www.w3.org/2000/svg" viewBox="0 0 352.48 237.55">
  <defs>
    <style>
      .cls-1 {
        fill: #b2292e;
      }

      .cls-1, .cls-2 {
        stroke-width: 0px;
      }

      .cls-2 {
        fill: #fff;
      }
    </style>
  </defs>
  <path class="cls-1" d="M143.71,69.06h-59.25c-1.22,0-2.22.96-2.22,2.14v14.85c.09.17.27.28.47.28h7.57c.3,0,.54.24.54.53v10.51c0,.29-.24.52-.54.52h-7.57c-.21,0-.39.12-.47.28v21.42c.27,1.57,1.37,2.3,3.44,2.3h4.53c.3,0,.54.24.54.52v9.96h0v1.61h52.96c1.23,0,2.22-.96,2.22-2.14v-60.65c0-1.18-.99-2.14-2.22-2.14M119.35,90.67c3.32,0,5.67,2.33,5.67,5.41s-2.35,5.41-5.67,5.41-5.67-2.33-5.67-5.41,2.36-5.41,5.67-5.41M110.6,113.34c0,.39-.32.7-.72.7h-23.16c-.4,0-.73-.31-.73-.7v-7.33c0-.39.33-.7.73-.7h23.16c.4,0,.72.31.72.7v7.33ZM119.35,104.38c3.32,0,5.67,2.33,5.67,5.41s-2.35,5.41-5.67,5.41-5.67-2.33-5.67-5.41,2.36-5.41,5.67-5.41M138.32,125.94c0,.46-.39.83-.86.83h-22.88c-.48,0-.87-.37-.87-.83v-7.06c0-.46.39-.83.87-.83h22.88c.47,0,.86.37.86.83v7.06ZM133.28,115.2c-3.32,0-5.67-2.33-5.67-5.41s2.36-5.41,5.67-5.41,5.67,2.33,5.67,5.41-2.35,5.41-5.67,5.41M133.28,101.49c-3.32,0-5.67-2.33-5.67-5.41s2.36-5.41,5.67-5.41,5.67,2.33,5.67,5.41-2.35,5.41-5.67,5.41"/>
  <path class="cls-2" d="M8.58,69.33c5.17,0,8.57,3.02,8.57,7.74s-3.41,7.74-8.57,7.74-8.58-3.02-8.58-7.74,3.41-7.74,8.58-7.74M.83,133.53v-46.12c0-.43.36-.77.8-.77h13.89c.44,0,.8.35.8.77v46.12c0,.43-.36.77-.8.77H1.63c-.44,0-.8-.35-.8-.77M66.13,98.2h-7.82c-.3,0-.55-.24-.55-.52v-10.52c0-.29.24-.52.55-.52h7.82c.1,0,.19-.03.27-.08v-16.57c0-.44-.37-.8-.83-.8h-13.84c-.46,0-.83.36-.83.8v19.54c0,.67-.81,1.05-1.35.62-2.44-1.96-6.41-3.71-11.2-3.71-13.65,0-20.47,9.96-20.47,20.54v7.65c0,10.58,6.82,20.54,20.47,20.54,5.25,0,9.58-2.11,11.89-4.27.52-.48,1.39-.11,1.39.59v1.81c0,.44.37.8.83.8h13.1c.46,0,.83-.36.83-.8v-35.03c-.08-.04-.17-.08-.27-.08M50.91,114.1c0,5.87-4.06,8.81-8.67,8.81-6.09,0-8.85-3.74-8.85-9.07v-6.05c0-5.51,2.77-9.07,8.85-9.07,4.61,0,8.67,2.93,8.67,8.81v6.58ZM4.44,138.82c-2.02,0-4.06,1.33-4.06,3.88s2.04,3.88,4.06,3.88,4.06-1.33,4.06-3.88-2.04-3.88-4.06-3.88"/>
  <path class="cls-2" d="M24.55,147.97c-2.61,0-4.83.83-7.07,2.65l-.22-1.76-.07-.58h-6.4v23.65h7.04v-12.05c0-3.18,2.24-5.58,5.22-5.58,3.61,0,4.89,2.74,4.89,5.31v12.32h7.09v-12.36c0-3.5-1.05-6.46-3.04-8.54-1.88-1.97-4.52-3.05-7.44-3.05M57.55,139.02h-.68v11.2c-1.97-1.65-5.03-2.43-6.91-2.43-3.61,0-6.69,1.08-8.89,3.13-2.33,2.17-3.56,5.35-3.56,9.19,0,7.37,5.06,12.32,12.59,12.32,2.1,0,4.87-.48,6.96-2.58l.18,1.5.07.58h6.63v-32.91h-6.4ZM56.49,160.1c0,3.87-3.03,5.9-6.02,5.9-3.4,0-5.88-2.48-5.88-5.9s2.42-5.85,5.88-5.85,6.02,2.51,6.02,5.85M79.11,147.87c-3.71,0-6.91,1.25-9.23,3.63-2.19,2.23-3.4,5.31-3.4,8.65s1.2,6.45,3.38,8.67c2.32,2.36,5.53,3.61,9.31,3.61s7-1.25,9.33-3.61c2.19-2.22,3.4-5.3,3.4-8.67s-1.24-6.41-3.48-8.66c-2.33-2.33-5.63-3.62-9.3-3.62M84.75,160.15c0,2.93-1.73,5.9-5.6,5.9s-5.6-2.96-5.6-5.9,1.76-5.94,5.6-5.94c3.5,0,5.6,3.02,5.6,5.94M107.97,165.69l-.25-.73-.71.34c-.79.38-1.71.61-2.46.61-1.52,0-2.32-.87-2.32-2.51v-8.97h6.42v-6.06h-6.38v-6.4l-.76.08-5.72.59-.61.06v5.68h-4.31v6.06h4.31v8.97c0,5.51,3.18,8.81,8.52,8.81.16,0,.32,0,.49-.01,1.81-.05,3.25-.33,4.96-.99l.59-.23-.2-.59-1.59-4.7ZM123.49,147.65c-3.82,0-7.09,1.2-9.44,3.48-2.28,2.21-3.53,5.35-3.53,8.84,0,3.72,1.23,6.87,3.56,9.09,2.37,2.26,5.77,3.46,9.82,3.46s8.08-1.46,10.43-3.82l.47-.47-.48-.46-3.66-3.48-.49-.47-.48.48c-.91.91-3.22,1.88-5.69,1.88-3.13,0-5.37-1.29-6.05-3.43h17.83l.06-.6c.46-4.69-.56-8.5-2.93-11.01-2.16-2.29-5.42-3.49-9.42-3.49M118.19,156.87c.92-1.93,2.87-3.02,5.49-3.02,1.66,0,4.41.41,5.17,3.02h-10.66ZM145.24,139.02h-6.36v33.18h7.04v-33.18h-.68ZM1.58,148.24h-.68v23.69h7.09v-23.69H1.58Z"/>
</svg>