<?xml version="1.0" encoding="UTF-8"?>
<svg id="Capa_1" data-name="Capa 1" xmlns="http://www.w3.org/2000/svg" viewBox="0 0 352.48 237.55">
  <defs>
    <style>
      .cls-1 {
        fill: #fff;
        stroke-width: 0px;
      }
    </style>
  </defs>
  <g>
    <path class="cls-1" d="M22.46,111.33c0,5.91-3.71,11.19-11.14,11.19-5.8,0-9.73-2.67-10.88-8.52l6.17-1.46c.42,2.41,2.09,4.03,4.39,4.03,3.77,0,4.86-2.72,4.86-7.16v-24.84h6.59v26.77Z"/>
    <path class="cls-1" d="M60.1,107.98c0,8.94-6.43,14.54-14.9,14.54s-14.9-5.6-14.9-14.54v-23.43h6.59v23.22c0,3.66,1.99,8.47,8.31,8.47s8.32-4.81,8.32-8.47v-23.22h6.59v23.43Z"/>
    <path class="cls-1" d="M68.21,84.55h6.59v31.06h15.74v5.96h-22.33v-37.02Z"/>
    <path class="cls-1" d="M95.19,84.55h6.59v37.02h-6.59v-37.02Z"/>
    <path class="cls-1" d="M127.45,83.61c11.56-.21,19.71,7.53,19.71,19.4s-8.16,19.3-19.71,19.5c-11.4,0-19.56-7.74-19.56-19.3s8.16-19.61,19.56-19.61ZM127.5,116.56c7.69,0,12.76-5.86,12.76-13.75,0-7.37-5.07-13.23-12.76-13.23s-12.71,5.86-12.71,13.23c0,7.9,5.07,13.75,12.71,13.75Z"/>
    <path class="cls-1" d="M29.72,142.95c-2.72-2.88-5.23-3.66-7.79-3.66-7.63,0-12.71,5.86-12.71,13.23,0,7.9,5.07,13.75,12.71,13.75,2.98,0,5.86-1.36,8.32-4.5l5.44,3.87c-3.35,4.6-8.37,6.59-13.8,6.59-11.4,0-19.56-7.74-19.56-19.3s8.16-19.61,19.56-19.61c5.02,0,9.31,1.62,12.97,5.86l-5.12,3.77Z"/>
    <path class="cls-1" d="M52.1,134.27h5.7l15.95,37.02h-7.53l-3.45-8.47h-16.05l-3.35,8.47h-7.37l16.11-37.02ZM60.47,157.17l-5.7-15.06-5.8,15.06h11.5Z"/>
    <path class="cls-1" d="M77.88,134.27h14.43c5.6,0,11.35,2.56,11.35,9.31,0,4.18-2.61,6.95-6.43,8.1v.1c4.65.52,8,4.18,8,8.94,0,8.05-7.01,10.56-14.01,10.56h-13.34v-37.02ZM84.47,149.33h6.01c4.39,0,6.59-1.88,6.59-4.65,0-3.19-2.2-4.76-7.16-4.76h-5.44v9.41ZM84.47,165.65h6.07c3.4,0,8.11-.58,8.11-5.44,0-3.87-2.51-5.23-7.84-5.23h-6.33v10.67Z"/>
    <path class="cls-1" d="M111.76,134.27h12.86c7.11,0,13.81,2.3,13.81,10.62,0,5.33-3.09,9.26-8.58,10.04l9.83,16.37h-7.95l-8.58-15.69h-4.81v15.69h-6.59v-37.02ZM123.48,149.96c3.71,0,8.05-.31,8.05-5.12,0-4.39-4.08-4.92-7.48-4.92h-5.7v10.04h5.12Z"/>
    <path class="cls-1" d="M144.71,134.27h24.53v5.96h-17.94v9.1h17v5.96h-17v10.04h18.88v5.96h-25.47v-37.02Z"/>
    <path class="cls-1" d="M176.65,134.27h12.86c7.11,0,13.81,2.3,13.81,10.62,0,5.33-3.09,9.26-8.58,10.04l9.83,16.37h-7.95l-8.58-15.69h-4.81v15.69h-6.59v-37.02ZM188.37,149.96c3.71,0,8.05-.31,8.05-5.12,0-4.39-4.08-4.92-7.48-4.92h-5.7v10.04h5.12Z"/>
    <path class="cls-1" d="M221.57,134.27h5.7l15.95,37.02h-7.53l-3.45-8.47h-16.05l-3.35,8.47h-7.37l16.11-37.02ZM229.94,157.17l-5.7-15.06-5.8,15.06h11.5Z"/>
  </g>
  <g>
    <path class="cls-1" d="M26.2,76.88c-1.48.79-3.16,1.2-5.02,1.2-3.74,0-6.41-2.54-6.41-6.33s2.67-6.43,6.41-6.43c1.85,0,3.52.39,4.78,1.53l-1.59,1.61c-.77-.75-1.95-1.18-3.17-1.18-2.5,0-4.17,1.92-4.17,4.34,0,2.59,1.66,4.51,4.17,4.51,1.1,0,2.09-.21,2.85-.63v-2.86h-2.49v-1.96h4.65v6.21Z"/>
    <path class="cls-1" d="M28.75,65.63h4.22c2.33,0,4.53.75,4.53,3.48,0,1.75-1.01,3.04-2.81,3.29l3.22,5.37h-2.61l-2.81-5.14h-1.58v5.14h-2.16v-12.14ZM32.59,70.77c1.22,0,2.64-.1,2.64-1.68,0-1.44-1.34-1.61-2.45-1.61h-1.87v3.29h1.68Z"/>
    <path class="cls-1" d="M49.27,73.31c0,2.93-2.11,4.77-4.89,4.77s-4.89-1.83-4.89-4.77v-7.68h2.16v7.61c0,1.2.65,2.78,2.73,2.78s2.73-1.58,2.73-2.78v-7.61h2.16v7.68Z"/>
    <path class="cls-1" d="M51.93,65.63h4.08c2.35,0,4.48.82,4.48,3.52,0,3.05-2.28,3.6-4.85,3.6h-1.54v5.02h-2.16v-12.14ZM55.39,70.89c1.23,0,2.83-.07,2.83-1.72,0-1.49-1.42-1.7-2.59-1.7h-1.54v3.41h1.3Z"/>
    <path class="cls-1" d="M68.17,65.32c3.79-.07,6.47,2.47,6.47,6.36s-2.68,6.33-6.47,6.4c-3.74,0-6.41-2.54-6.41-6.33s2.67-6.43,6.41-6.43ZM68.18,76.12c2.52,0,4.18-1.92,4.18-4.51,0-2.42-1.66-4.34-4.18-4.34s-4.17,1.92-4.17,4.34c0,2.59,1.66,4.51,4.17,4.51Z"/>
  </g>
</svg>