<?xml version="1.0" encoding="UTF-8"?>
<svg id="Capa_1" data-name="Capa 1" xmlns="http://www.w3.org/2000/svg" viewBox="0 0 352.48 237.55">
  <defs>
    <style>
      .cls-1 {
        fill: #fff;
      }

      .cls-1, .cls-2, .cls-3 {
        stroke-width: 0px;
      }

      .cls-2 {
        fill: #f69b21;
      }

      .cls-3 {
        fill: #0da3dd;
      }
    </style>
  </defs>
  <g id="Group_2654" data-name="Group 2654">
    <path id="Path_4114" data-name="Path 4114" class="cls-1" d="M116.54,114.61c1,.04,1.99-.18,2.88-.64.7-.35,1.13-1.07,1.11-1.85,0-.88-.56-1.66-1.39-1.95-1.29-.56-2.62-1.02-3.98-1.36-.99-.26-1.97-.59-2.92-.97-.97-.38-1.89-.88-2.73-1.49-.83-.6-1.51-1.38-2.02-2.27-.54-1.03-.81-2.17-.77-3.33-.08-2.25.88-4.42,2.6-5.87,2.14-1.62,4.79-2.41,7.47-2.23,1.86-.02,3.71.19,5.51.64,1.5.38,2.94.94,4.3,1.68l-1.3,5.5c-1.35-.71-2.77-1.28-4.24-1.68-1.38-.4-2.8-.62-4.24-.64-2.29,0-3.44.74-3.44,2.23,0,.41.15.81.42,1.12.33.36.72.64,1.17.83.57.26,1.16.48,1.76.67.67.21,1.4.43,2.18.65,1.01.28,2,.61,2.98,1,.95.37,1.84.87,2.64,1.49.78.6,1.43,1.36,1.89,2.23.5.99.75,2.1.72,3.21.01,1.18-.23,2.36-.72,3.44-.48,1.04-1.19,1.96-2.08,2.69-1,.8-2.14,1.4-3.37,1.76-1.48.44-3.03.66-4.58.64-1.89,0-3.77-.22-5.6-.67-1.57-.37-3.08-.95-4.5-1.72l1.26-5.54c1.36.72,2.79,1.3,4.26,1.74,1.53.46,3.12.69,4.72.69"/>
    <path id="Path_4115" data-name="Path 4115" class="cls-1" d="M131.06,119.48v-26.22h19.13v5.37h-12.62v4.99h10.15v5.37h-10.15v5.12h12.62v5.37h-19.13Z"/>
    <path id="Path_4116" data-name="Path 4116" class="cls-1" d="M172.47,119.48c-1.83.43-3.7.64-5.58.64-1.95.02-3.9-.29-5.75-.93-1.65-.57-3.17-1.48-4.44-2.67-1.26-1.2-2.25-2.66-2.88-4.28-.71-1.84-1.06-3.8-1.03-5.77-.04-1.98.3-3.94,1-5.79,1.26-3.34,3.93-5.94,7.3-7.11,1.88-.65,3.85-.97,5.83-.94.87,0,1.74.05,2.6.14.89.1,1.77.24,2.64.42.85.17,1.68.41,2.49.71.74.27,1.45.6,2.13.98l-2.1,5.58c-2.28-1.39-4.89-2.14-7.55-2.18-2.1-.11-4.15.68-5.64,2.17-1.44,1.6-2.19,3.7-2.08,5.85-.14,2.22.55,4.4,1.93,6.14,1.48,1.55,3.57,2.36,5.7,2.2.75,0,1.5-.08,2.24-.23.67-.13,1.32-.32,1.95-.57v-3.86h-6.46v-5.28h12.5v12.96c-1.52.82-3.15,1.42-4.83,1.8"/>
    <path id="Path_4117" data-name="Path 4117" class="cls-1" d="M203.82,113.75c-.5,1.34-1.3,2.55-2.33,3.54-1.04.97-2.29,1.7-3.65,2.12-1.55.48-3.16.71-4.78.69-1.58.02-3.16-.19-4.68-.62-1.34-.38-2.59-1.05-3.65-1.95-1.04-.92-1.86-2.07-2.37-3.36-.59-1.53-.88-3.16-.84-4.81v-16.11h6.62v15.23c-.12,1.59.31,3.17,1.22,4.49.98,1.08,2.41,1.64,3.86,1.51,1.33.1,2.64-.38,3.59-1.33.91-1.28,1.34-2.84,1.2-4.41v-15.48h6.63v15.52c.03,1.69-.24,3.38-.82,4.97"/>
    <path id="Path_4118" data-name="Path 4118" class="cls-1" d="M216.14,119.48h-6.67v-26.23h10.54c2.82-.2,5.63.59,7.93,2.25,1.79,1.49,2.78,3.73,2.68,6.06.04,1.64-.44,3.24-1.36,4.59-1,1.37-2.4,2.4-4,2.96l6.71,10.36h-7.5l-5.24-8.81-3.06.25-.02,8.57ZM219.37,105.89c1.18-.02,2.32-.4,3.27-1.09.79-.71,1.21-1.75,1.13-2.81,0-2.29-1.65-3.44-4.95-3.44h-2.81v7.43l3.36-.09Z"/>
    <path id="Path_4119" data-name="Path 4119" class="cls-1" d="M260.87,106.27c.02,1.94-.34,3.87-1.07,5.67-.67,1.64-1.66,3.13-2.91,4.38-1.25,1.23-2.73,2.18-4.36,2.81-1.74.67-3.59,1-5.45.99-1.84.01-3.67-.29-5.41-.9-1.61-.56-3.09-1.46-4.33-2.62-1.25-1.2-2.24-2.66-2.87-4.28-.73-1.87-1.09-3.87-1.05-5.87-.02-1.94.33-3.87,1.05-5.67,1.31-3.3,3.94-5.9,7.26-7.15,1.74-.67,3.59-1,5.45-.99,1.85-.02,3.69.28,5.43.88,3.3,1.13,5.94,3.65,7.22,6.9.73,1.86,1.09,3.85,1.05,5.85M254.15,106.43c.02-1.16-.14-2.32-.48-3.44-.29-.97-.76-1.88-1.4-2.67-.61-.73-1.37-1.32-2.23-1.72-.94-.42-1.95-.63-2.98-.61-1.99-.11-3.91.74-5.16,2.29-1.27,1.73-1.91,3.84-1.81,5.98-.02,1.17.14,2.33.48,3.44.29.97.76,1.88,1.38,2.68.59.75,1.36,1.35,2.23,1.74.94.42,1.97.63,3,.61,1.01.02,2.01-.19,2.94-.61.85-.39,1.6-.98,2.2-1.7.63-.77,1.09-1.66,1.37-2.62.32-1.1.47-2.23.46-3.38"/>
    <path id="Path_4120" data-name="Path 4120" class="cls-1" d="M273.53,114.61c.99.04,1.98-.18,2.87-.64.7-.35,1.13-1.07,1.12-1.85,0-.88-.56-1.66-1.39-1.95-1.29-.56-2.62-1.02-3.98-1.36-.99-.26-1.97-.59-2.92-.97-.97-.38-1.88-.88-2.72-1.49-.83-.6-1.52-1.37-2.02-2.27-.55-1.02-.81-2.17-.78-3.33-.08-2.25.88-4.42,2.6-5.87,2.14-1.62,4.79-2.41,7.47-2.23,1.86-.02,3.71.19,5.51.64,1.5.38,2.94.94,4.3,1.68l-1.3,5.5c-1.35-.71-2.77-1.27-4.24-1.68-1.38-.4-2.8-.62-4.23-.64-2.29,0-3.44.74-3.44,2.23,0,.41.14.81.42,1.12.33.36.72.64,1.17.83.57.26,1.16.49,1.77.67.67.21,1.4.43,2.18.65,1.01.28,2.01.61,2.98,1,.95.37,1.84.87,2.64,1.49.78.6,1.42,1.36,1.89,2.23.5.99.75,2.1.72,3.21.01,1.18-.23,2.36-.72,3.44-.48,1.04-1.19,1.96-2.07,2.69-1,.8-2.15,1.4-3.38,1.76-1.48.44-3.03.66-4.57.64-1.89,0-3.77-.22-5.6-.67-1.57-.37-3.08-.95-4.5-1.72l1.26-5.54c1.36.72,2.79,1.3,4.26,1.74,1.53.46,3.12.69,4.72.69"/>
    <path id="Path_4121" data-name="Path 4121" class="cls-3" d="M.87,123.21c43.78-8.25,67.79,1.49,73.21,4.28,17.13,8.82,16.25,20.07,14.76,24.23-.76,2.14-2.29.25-2.29.25,0,0-14.94-28.65-85.69-28.76"/>
    <path id="Path_4122" data-name="Path 4122" class="cls-2" d="M70.9,142.53c8.63,5.08,11,14.95,9.44,18.29-1.06,2.28-2.38.75-2.38.75,0,0-16.47-19.29-60.87-25.09,31.13-3.04,44.26.85,53.81,6.05"/>
    <path id="Path_4123" data-name="Path 4123" class="cls-1" d="M30.2,75.52s31.05-.07,33.89,0c9.43-.54,25.29,6.25,24.66,22.83-1.47,13.91-12.51,17.55-12.51,17.55,0,0,16.39,3.64,16.95,21.08-13.76-17.43-42.26-22.47-42.26-22.47,0,0,20.97-.14,21.11-13.98.13-13.11-16.02-11.88-16.02-11.88h-9.99v24.87c-5.21-1.26-10.48-2.21-15.8-2.83-.09-3.78-.03-35.14-.03-35.14"/>
    <path id="Path_4124" data-name="Path 4124" class="cls-1" d="M113.22,152.26h-6.58v-25.88h10.4c2.79-.2,5.56.59,7.82,2.22,1.76,1.47,2.74,3.68,2.64,5.98.04,1.62-.43,3.21-1.34,4.54-.99,1.35-2.37,2.37-3.95,2.92l6.63,10.23h-7.42l-5.18-8.7-3.02.25v8.45ZM116.4,138.84c1.16-.02,2.29-.4,3.23-1.08.78-.7,1.2-1.72,1.11-2.77,0-2.26-1.63-3.4-4.89-3.4h-2.77v7.34l3.31-.08Z"/>
    <path id="Path_4125" data-name="Path 4125" class="cls-1" d="M132.2,152.26v-25.88h18.88v5.3h-12.46v4.93h10.02v5.3h-10.02v5.05h12.47v5.3h-18.88Z"/>
    <path id="Path_4126" data-name="Path 4126" class="cls-1" d="M164.2,147.46c.98.04,1.96-.18,2.83-.62.69-.34,1.12-1.06,1.1-1.83.01-.4-.11-.79-.35-1.11-.28-.34-.63-.61-1.02-.81-.53-.27-1.08-.49-1.65-.67-.67-.2-1.42-.42-2.28-.68-.98-.26-1.94-.58-2.88-.96-.96-.38-1.86-.87-2.69-1.47-.82-.59-1.5-1.36-1.99-2.24-.54-1.01-.8-2.15-.76-3.29-.08-2.22.87-4.36,2.57-5.79,2.11-1.6,4.73-2.38,7.37-2.2,1.83-.02,3.66.19,5.44.63,1.48.38,2.91.94,4.25,1.67l-1.29,5.42c-1.33-.7-2.73-1.25-4.18-1.65-1.36-.39-2.77-.6-4.19-.62-2.27,0-3.4.74-3.4,2.2,0,.4.14.79.41,1.1.33.36.72.64,1.17.83.56.26,1.14.48,1.74.67.67.21,1.38.42,2.16.64,1,.28,1.98.62,2.94,1,.93.37,1.81.86,2.61,1.47.77.59,1.41,1.34,1.86,2.2.5.98.74,2.07.71,3.17.02,1.17-.22,2.33-.71,3.4-.48,1.02-1.18,1.92-2.05,2.64-.98.79-2.1,1.38-3.3,1.74-1.47.44-3,.65-4.54.62-1.86,0-3.72-.22-5.53-.67-1.55-.37-3.05-.94-4.46-1.69l1.25-5.46c1.34.7,2.75,1.28,4.2,1.71,1.51.46,3.09.69,4.67.68"/>
    <path id="Path_4127" data-name="Path 4127" class="cls-1" d="M178.95,152.26v-25.88h18.89v5.3h-12.47v4.93h10.03v5.3h-10.03v5.05h12.47v5.3h-18.89Z"/>
    <path id="Path_4128" data-name="Path 4128" class="cls-1" d="M208.93,152.26h-6.58v-25.88h10.4c2.79-.2,5.55.59,7.82,2.22,1.77,1.47,2.74,3.68,2.65,5.98.04,1.62-.42,3.2-1.33,4.54-.99,1.35-2.37,2.37-3.96,2.92l6.63,10.23h-7.42l-5.18-8.7-3.02.25v8.45ZM212.12,138.84c1.16-.02,2.29-.4,3.22-1.08.79-.69,1.21-1.72,1.13-2.77,0-2.26-1.63-3.4-4.89-3.4h-2.77v7.34l3.31-.08Z"/>
    <path id="Path_4129" data-name="Path 4129" class="cls-1" d="M241.53,152.26h-8.24l-8.74-25.88h6.79l6.13,19.5,6.09-19.5h6.87l-8.9,25.88Z"/>
    <path id="Path_4130" data-name="Path 4130" class="cls-1" d="M274.91,152.26h-6.54l-1.91-5.5h-9.61l-1.87,5.5h-6.54l9.19-25.88h8.24l9.04,25.88ZM261.7,131.47l-3.44,10.15h6.75l-3.31-10.15Z"/>
    <path id="Path_4131" data-name="Path 4131" class="cls-1" d="M286.3,147.46c.98.04,1.96-.17,2.83-.62.69-.35,1.12-1.06,1.1-1.83.01-.4-.11-.79-.35-1.11-.28-.34-.62-.61-1.01-.81-.53-.27-1.08-.49-1.65-.67-.67-.2-1.42-.42-2.28-.68-.98-.26-1.94-.58-2.88-.96-.96-.37-1.86-.87-2.69-1.47-.82-.59-1.5-1.36-1.99-2.24-.54-1.01-.8-2.15-.76-3.29-.08-2.22.87-4.36,2.57-5.79,2.11-1.6,4.73-2.38,7.37-2.2,1.83-.02,3.66.19,5.44.63,1.48.38,2.91.94,4.25,1.67l-1.28,5.42c-1.33-.7-2.74-1.25-4.18-1.65-1.36-.39-2.77-.6-4.18-.62-2.26,0-3.4.74-3.4,2.2,0,.4.14.8.41,1.1.33.36.72.64,1.17.83.56.26,1.15.48,1.74.67.67.21,1.38.42,2.15.64,1,.28,1.98.61,2.94,1,.93.37,1.81.86,2.61,1.47.77.59,1.41,1.34,1.87,2.2.49.98.73,2.07.7,3.17.01,1.17-.22,2.33-.7,3.4-.48,1.02-1.19,1.92-2.06,2.64-.98.79-2.1,1.38-3.31,1.74-1.47.44-3,.65-4.54.62-1.86,0-3.72-.22-5.53-.67-1.56-.37-3.06-.93-4.46-1.69l1.23-5.46c1.35.7,2.76,1.28,4.21,1.71,1.51.46,3.09.69,4.67.68"/>
  </g>
</svg>