<?xml version="1.0" encoding="UTF-8"?>
<svg id="Capa_1" data-name="Capa 1" xmlns="http://www.w3.org/2000/svg" xmlns:xlink="http://www.w3.org/1999/xlink" viewBox="0 0 418.07 237.55">
  <defs>
    <style>
      .cls-1 {
        fill: #29aae1;
      }

      .cls-1, .cls-2, .cls-3, .cls-4 {
        stroke-width: 0px;
      }

      .cls-2 {
        fill: #b2292e;
      }

      .cls-3 {
        fill: none;
      }

      .cls-4 {
        fill: #fff;
      }

      .cls-5 {
        clip-path: url(#clippath);
      }
    </style>
    <clipPath id="clippath">
      <rect class="cls-3" x="2.86" y="101" width="37.84" height="14.86"/>
    </clipPath>
  </defs>
  <g>
    <g>
      <g>
        <path class="cls-4" d="M48.83,129.25c1.5-2.91,3.53-5.14,6.1-6.71,2.57-1.56,5.44-2.35,8.62-2.35,2.77,0,5.2.56,7.27,1.68,2.08,1.12,3.74,2.53,5,4.22v-5.3h9.45v37.15h-9.45v-5.43c-1.21,1.74-2.87,3.18-5,4.32-2.12,1.14-4.57,1.71-7.34,1.71-3.13,0-5.98-.8-8.55-2.41-2.57-1.61-4.61-3.88-6.1-6.8-1.5-2.93-2.25-6.29-2.25-10.09s.75-7.08,2.25-9.99ZM74.48,133.51c-.89-1.63-2.1-2.88-3.62-3.76-1.52-.87-3.15-1.31-4.89-1.31s-3.35.42-4.83,1.27c-1.48.85-2.67,2.09-3.59,3.72-.92,1.63-1.37,3.57-1.37,5.8s.46,4.19,1.37,5.87c.92,1.68,2.12,2.96,3.62,3.86,1.5.9,3.1,1.34,4.79,1.34s3.37-.44,4.89-1.31c1.52-.87,2.73-2.12,3.62-3.76.89-1.63,1.34-3.59,1.34-5.87s-.45-4.23-1.34-5.87Z"/>
        <path class="cls-4" d="M103.85,108.33v49.62h-9.39v-49.62h9.39Z"/>
        <path class="cls-4" d="M122.49,120.8v37.15h-9.39v-37.15h9.39Z"/>
        <path class="cls-4" d="M131.57,129.25c1.5-2.91,3.54-5.14,6.13-6.71,2.59-1.56,5.48-2.35,8.65-2.35,2.41,0,4.72.53,6.91,1.58,2.19,1.05,3.93,2.45,5.23,4.19v-17.64h9.52v49.62h-9.52v-5.5c-1.16,1.83-2.79,3.31-4.89,4.42-2.1,1.12-4.54,1.68-7.31,1.68-3.13,0-5.99-.8-8.58-2.41-2.59-1.61-4.64-3.88-6.13-6.8-1.5-2.93-2.25-6.29-2.25-10.09s.75-7.08,2.25-9.99ZM157.22,133.51c-.89-1.63-2.1-2.88-3.62-3.76-1.52-.87-3.15-1.31-4.89-1.31s-3.35.42-4.83,1.27c-1.48.85-2.67,2.09-3.59,3.72-.92,1.63-1.37,3.57-1.37,5.8s.46,4.19,1.37,5.87c.92,1.68,2.12,2.96,3.62,3.86,1.5.9,3.1,1.34,4.79,1.34s3.37-.44,4.89-1.31c1.52-.87,2.73-2.12,3.62-3.76.89-1.63,1.34-3.59,1.34-5.87s-.45-4.23-1.34-5.87Z"/>
        <path class="cls-4" d="M177.03,129.25c1.5-2.91,3.53-5.14,6.1-6.71,2.57-1.56,5.44-2.35,8.62-2.35,2.77,0,5.2.56,7.27,1.68,2.08,1.12,3.74,2.53,4.99,4.22v-5.3h9.45v37.15h-9.45v-5.43c-1.21,1.74-2.87,3.18-4.99,4.32-2.12,1.14-4.57,1.71-7.34,1.71-3.13,0-5.98-.8-8.55-2.41-2.57-1.61-4.61-3.88-6.1-6.8-1.5-2.93-2.25-6.29-2.25-10.09s.75-7.08,2.25-9.99ZM202.68,133.51c-.9-1.63-2.1-2.88-3.62-3.76-1.52-.87-3.15-1.31-4.89-1.31s-3.35.42-4.83,1.27c-1.48.85-2.67,2.09-3.59,3.72-.92,1.63-1.37,3.57-1.37,5.8s.46,4.19,1.37,5.87c.92,1.68,2.12,2.96,3.62,3.86,1.5.9,3.1,1.34,4.79,1.34s3.37-.44,4.89-1.31c1.52-.87,2.73-2.12,3.62-3.76.89-1.63,1.34-3.59,1.34-5.87s-.45-4.23-1.34-5.87Z"/>
      </g>
      <g>
        <path class="cls-2" d="M266.95,112.46c0,6.85-10.38,6.85-10.38,0s10.38-6.85,10.38,0Z"/>
        <g>
          <path class="cls-1" d="M230.98,130.69h-10.45v-7.71h10.45v-2.38c0-9.51,6.41-13.91,13.55-13.91,3.1,0,6.34,1.01,9.23,2.88l-3.24,6.56c-1.87-1.22-3.6-1.87-5.4-1.87-3.03,0-5.33,2.02-5.33,6.34v2.38h11.32v7.71h-11.32v27.46c0,9.51-6.41,13.91-13.55,13.91-3.1,0-5.26-.72-8.14-2.59l3.24-6.56c1.87,1.23,2.52,1.59,4.32,1.59,3.03,0,5.33-2.02,5.33-6.34v-27.46Z"/>
          <g>
            <path class="cls-1" d="M257.37,122.33v35.68h8.79v-35.68h-8.79Z"/>
            <path class="cls-1" d="M282.01,122.48l.65,4.11c2.74-4.4,6.41-5.04,10.02-5.04s7.21,1.44,9.15,3.39l-3.96,7.64c-1.8-1.51-3.46-2.31-6.34-2.31-4.61,0-8.86,2.45-8.86,9.01v18.74h-8.79v-35.53h8.14Z"/>
            <path class="cls-1" d="M328.35,158.01v-19.03c0-4.68-2.45-8.94-7.28-8.94s-7.57,4.25-7.57,8.94v19.03h-8.79v-35.6h8.14l.65,4.33c1.88-3.61,5.98-4.9,9.37-4.9,4.25,0,8.5,1.73,10.52,6.63,3.17-5.05,7.28-6.49,11.89-6.49,10.09,0,15.06,6.2,15.06,16.87v19.17h-8.79v-19.17c0-4.69-1.95-8.65-6.7-8.65s-7.71,4.11-7.71,8.79v19.03h-8.79Z"/>
            <path class="cls-1" d="M395.58,122.48h8.43v35.53h-8.29l-.43-5.19c-2.02,4.18-7.57,6.2-11.53,6.27-10.52.07-18.3-6.41-18.3-18.88s8.14-18.67,18.52-18.59c4.76,0,9.3,2.23,11.31,5.77l.29-4.9ZM374.25,140.21c0,6.78,4.68,10.81,10.52,10.81,13.84,0,13.84-21.55,0-21.55-5.84,0-10.52,3.96-10.52,10.74Z"/>
          </g>
        </g>
      </g>
    </g>
    <path class="cls-2" d="M113.74,116.44c-1.1-1.05-1.64-2.36-1.64-3.92s.55-2.87,1.64-3.92,2.47-1.58,4.12-1.58,3.03.53,4.12,1.58c1.09,1.05,1.64,2.36,1.64,3.92s-.55,2.87-1.64,3.92c-1.1,1.05-2.47,1.58-4.12,1.58s-3.03-.52-4.12-1.58Z"/>
  </g>
  <g>
    <path class="cls-4" d="M21.96,160.08c6.16-2.81,11.6-7.92,15.01-14.19,2.1-3.86,3.52-8.28,4.1-12.8.4-3.09.27-6.03.14-8.87-.06-1.31-.12-2.62-.12-3.94h-8.79c0,1.45.06,2.89.13,4.33.11,2.59.22,5.03-.08,7.36-.45,3.44-1.52,6.8-3.1,9.72-1.82,3.34-4.33,6.16-7.26,8.25-2.93-2.08-5.45-4.91-7.26-8.25-1.59-2.91-2.66-6.27-3.1-9.72-.3-2.34-.19-4.78-.08-7.36.06-1.44.13-2.88.13-4.33H2.88c0,1.32-.06,2.63-.12,3.94-.13,2.85-.26,5.79.14,8.88.58,4.51,2,8.94,4.1,12.79,3.41,6.27,8.8,11.38,14.96,14.19"/>
    <g class="cls-5">
      <polygon class="cls-2" points="45.52 120.5 22.07 111.94 -1.16 120.5 -4.2 112.25 22.06 102.57 48.53 112.25 45.52 120.5"/>
    </g>
  </g>
</svg>